<?xml version="1.0" standalone="no"?>
<!DOCTYPE svg PUBLIC "-//W3C//DTD SVG 20010904//EN"
 "http://www.w3.org/TR/2001/REC-SVG-20010904/DTD/svg10.dtd">
<svg version="1.0" xmlns="http://www.w3.org/2000/svg"
 width="1280.000000pt" height="837.000000pt" viewBox="0 0 1280.000000 837.000000"
 preserveAspectRatio="xMidYMid meet">
<metadata>
Created by potrace 1.16, written by Peter Selinger 2001-2019
</metadata>
<g transform="translate(0.000000,837.000000) scale(0.100000,-0.100000)"
fill="#EA4C89" stroke="none">
<path d="M8673 7935 c-20 -14 -80 -86 -314 -375 -47 -58 -133 -165 -192 -237
-231 -286 -324 -401 -386 -478 -35 -44 -67 -84 -71 -88 -4 -5 -243 145 -531
334 -288 188 -619 404 -735 480 -116 76 -233 150 -261 163 -107 54 -278 72
-398 41 -152 -39 -232 -102 -406 -320 -124 -155 -255 -317 -623 -770 -53 -66
-166 -205 -250 -310 -84 -104 -208 -257 -275 -340 -67 -82 -191 -235 -275
-340 -84 -104 -195 -242 -246 -305 -52 -63 -140 -172 -197 -242 -57 -71 -150
-185 -206 -255 -223 -275 -251 -311 -311 -403 -128 -193 -203 -345 -275 -554
-255 -740 -90 -1592 427 -2206 100 -120 281 -296 392 -382 175 -136 438 -303
620 -394 292 -146 570 -233 910 -285 125 -20 185 -23 430 -23 247 0 304 3 430
23 576 89 1079 314 1482 660 178 154 205 185 828 956 93 115 397 491 550 680
267 330 649 803 825 1020 110 136 262 323 337 416 76 93 151 189 167 213 92
134 104 303 31 452 -39 80 -93 140 -177 196 -81 54 -378 249 -668 438 -115 75
-302 197 -415 271 -113 74 -242 159 -287 188 l-82 53 103 126 c57 70 194 240
305 377 601 744 551 678 551 722 0 50 -5 54 -210 188 -91 59 -240 157 -331
216 -140 92 -172 109 -205 109 -22 0 -49 -7 -61 -15z m347 -380 c107 -70 199
-131 204 -135 4 -5 -58 -91 -140 -192 -146 -181 -261 -323 -443 -548 -52 -63
-136 -168 -188 -232 -52 -65 -99 -118 -103 -118 -5 0 -114 69 -243 154 l-235
153 209 259 c116 143 262 323 325 402 72 88 120 139 127 135 7 -4 83 -54 171
-111 87 -57 171 -108 187 -112 38 -11 95 5 114 33 18 25 20 70 4 99 -6 11 -89
71 -185 134 -122 81 -172 119 -167 128 5 7 28 38 52 68 l44 56 36 -22 c20 -13
124 -80 231 -151z m-2955 20 c28 -12 246 -150 485 -307 239 -156 473 -309 520
-340 47 -30 159 -104 250 -163 91 -59 208 -136 260 -170 52 -34 169 -111 260
-170 333 -218 1488 -974 1585 -1037 433 -281 482 -316 514 -364 17 -26 36 -66
42 -88 15 -57 5 -149 -21 -193 -22 -37 -170 -223 -645 -808 -77 -96 -166 -206
-402 -498 -59 -72 -135 -166 -168 -207 -33 -41 -109 -135 -168 -208 -59 -72
-155 -192 -214 -265 -59 -72 -135 -166 -168 -207 -33 -41 -109 -135 -168 -208
-59 -72 -153 -189 -210 -260 -57 -70 -150 -185 -208 -256 -384 -477 -853 -774
-1452 -921 -250 -61 -338 -70 -657 -70 -225 0 -308 4 -395 18 -485 78 -839
226 -1295 542 -464 322 -782 757 -924 1263 -69 246 -93 560 -62 808 32 254
118 520 238 739 119 218 3 69 1563 1996 545 674 814 1006 934 1156 67 83 137
163 156 178 98 74 238 91 350 40z"/>
<path d="M5755 6537 c-119 -32 -170 -74 -330 -272 -265 -330 -423 -525 -650
-805 -308 -380 -309 -381 -309 -500 0 -93 32 -170 96 -230 36 -35 337 -233
1623 -1073 77 -50 223 -145 325 -212 102 -67 219 -143 260 -170 41 -27 174
-114 295 -193 259 -171 289 -187 378 -203 130 -24 269 23 362 122 28 30 160
191 295 358 135 167 357 441 494 610 143 176 259 329 275 361 21 45 26 69 26
131 0 64 -5 85 -32 140 -18 36 -44 76 -58 89 -23 21 -366 249 -875 580 -69 45
-186 121 -260 170 -74 49 -191 125 -260 170 -69 45 -406 266 -750 491 -406
266 -643 414 -675 424 -70 22 -171 27 -230 12z m311 -282 c82 -53 210 -136
284 -185 74 -49 191 -125 260 -170 69 -45 185 -120 258 -168 128 -85 799 -523
1172 -767 102 -67 245 -160 318 -208 247 -161 267 -176 296 -206 20 -20 30
-43 33 -75 7 -57 -5 -77 -144 -249 -179 -220 -224 -277 -336 -414 -59 -73
-155 -193 -214 -265 -214 -265 -238 -294 -301 -371 -91 -110 -160 -139 -245
-103 -27 11 -419 264 -1207 781 -91 59 -209 136 -262 171 -114 74 -416 272
-643 421 -539 353 -621 409 -642 442 -28 42 -29 95 -4 137 10 17 115 149 233
295 118 145 348 429 512 632 207 256 308 373 334 387 28 16 50 19 93 16 51 -3
70 -13 205 -101z"/>
<path d="M6575 5399 c-11 -6 -48 -45 -81 -87 -68 -86 -149 -185 -329 -407
-130 -160 -145 -182 -145 -214 0 -30 47 -80 83 -86 35 -7 84 8 101 29 6 8 73
89 148 182 377 465 378 466 378 502 0 49 -46 92 -97 91 -21 0 -47 -5 -58 -10z"/>
<path d="M6920 5064 c-89 -32 -138 -75 -258 -224 -146 -180 -172 -229 -172
-320 0 -91 22 -150 82 -215 59 -64 129 -102 216 -113 132 -18 252 20 335 105
79 81 239 286 261 333 31 67 29 188 -3 255 -33 67 -100 131 -169 163 -73 34
-221 42 -292 16z m175 -177 c69 -27 105 -73 105 -132 -1 -50 -4 -55 -123 -203
-114 -141 -144 -169 -193 -178 -113 -21 -226 95 -181 185 16 32 201 263 239
298 22 20 76 41 108 41 8 0 29 -5 45 -11z"/>
<path d="M7707 4551 c-89 -29 -128 -61 -230 -183 -191 -230 -214 -274 -205
-391 7 -81 43 -151 108 -210 69 -62 143 -90 245 -90 166 -1 227 36 392 238
157 192 168 213 168 330 0 81 -3 95 -30 144 -35 63 -89 112 -164 148 -76 35
-200 42 -284 14z m204 -192 c49 -25 84 -92 74 -140 -4 -17 -60 -96 -126 -179
-95 -118 -127 -151 -159 -164 -77 -31 -148 -14 -194 46 -31 42 -35 109 -8 149
47 70 228 281 251 294 39 21 115 18 162 -6z"/>
<path d="M6985 6445 c-91 -27 -115 -49 -115 -105 0 -30 6 -44 31 -64 37 -32
56 -32 167 -4 104 26 132 49 132 107 0 32 -6 44 -31 65 -38 33 -77 33 -184 1z"/>
<path d="M7500 6169 c-115 -32 -138 -40 -158 -59 -32 -30 -30 -92 3 -125 31
-32 82 -33 185 -4 89 24 120 49 120 96 0 47 -16 72 -55 89 -39 16 -46 16 -95
3z"/>
<path d="M7900 5861 c-108 -29 -130 -48 -130 -114 0 -38 29 -72 73 -82 41 -11
206 33 234 61 26 26 31 88 10 115 -32 42 -83 48 -187 20z"/>
<path d="M8400 5579 c-19 -5 -59 -17 -87 -25 -67 -18 -93 -46 -93 -96 0 -55
35 -88 91 -88 59 0 189 38 217 63 31 29 31 95 -2 126 -27 26 -77 34 -126 20z"/>
<path d="M4107 4410 c-88 -22 -170 -84 -210 -158 -24 -44 -31 -83 -62 -323
-45 -341 -46 -392 -10 -464 32 -67 99 -127 174 -157 48 -19 75 -22 186 -23
122 0 133 2 180 27 67 35 123 92 150 153 29 62 101 617 91 689 -9 58 -61 143
-113 182 -66 50 -140 73 -251 79 -53 2 -114 0 -135 -5z m231 -204 c18 -9 40
-33 49 -52 16 -33 16 -47 -17 -310 -20 -170 -39 -288 -49 -307 -28 -55 -64
-72 -142 -70 -89 2 -138 25 -162 75 -18 36 -18 41 18 319 20 155 41 292 48
306 26 49 65 65 147 60 44 -2 88 -11 108 -21z"/>
<path d="M4959 3807 c-92 -39 -153 -99 -183 -180 -21 -57 -89 -600 -82 -659
15 -140 134 -245 303 -269 145 -21 249 3 339 76 77 63 91 108 130 411 42 332
43 392 8 462 -32 65 -100 125 -173 153 -42 17 -84 23 -171 26 -104 3 -120 1
-171 -20z m270 -186 c19 -10 43 -33 53 -53 18 -35 18 -39 -17 -318 -20 -155
-40 -290 -44 -299 -26 -46 -61 -65 -130 -69 -90 -5 -153 20 -178 73 -16 34
-16 45 17 317 38 309 43 326 110 361 42 21 135 16 189 -12z"/>
<path d="M3898 3117 c-127 -44 -225 -132 -280 -252 -18 -41 -23 -68 -23 -150
0 -89 3 -107 28 -159 80 -171 237 -266 441 -266 151 0 261 43 356 139 31 31
69 83 86 116 27 55 29 69 29 170 0 101 -2 115 -29 170 -55 111 -164 200 -295
239 -83 25 -229 21 -313 -7z m298 -192 c64 -31 108 -81 130 -148 42 -128 -50
-264 -203 -298 -158 -36 -323 83 -323 232 1 117 83 210 215 243 42 10 129 -4
181 -29z"/>
<path d="M6035 2899 c-252 -33 -468 -160 -615 -362 -62 -87 -117 -103 -237
-72 -82 22 -217 19 -294 -5 -148 -45 -294 -178 -364 -330 -28 -61 -30 -72 -30
-190 0 -125 0 -125 39 -205 71 -145 205 -252 367 -290 83 -19 248 -19 324 0
33 8 105 38 161 65 55 28 114 50 131 50 16 0 49 -11 74 -24 24 -13 79 -42 121
-65 146 -79 275 -111 446 -111 399 1 725 228 833 580 27 89 32 261 10 350 -60
239 -246 450 -482 546 -138 56 -339 83 -484 63z m262 -195 c144 -30 245 -84
348 -188 209 -212 220 -511 26 -744 -95 -114 -264 -201 -433 -222 -143 -17
-302 14 -423 85 -132 76 -177 96 -238 103 -106 12 -167 0 -280 -57 -169 -85
-295 -91 -430 -19 -94 50 -157 141 -172 250 -22 150 132 346 299 379 48 10 68
9 153 -11 113 -26 187 -23 276 10 63 24 128 82 215 193 142 182 412 272 659
221z"/>
</g>
</svg>
