<svg width="50" height="50" viewBox="0 0 50 50" fill="none" xmlns="http://www.w3.org/2000/svg">
<path d="M48.0391 38.255H1.96063V45.7292H48.0391V38.255Z" fill="#FFDDED"/>
<path d="M48.0395 47.2471H1.96056C1.12189 47.2471 0.441711 46.5671 0.441711 45.7282V38.2542C0.441711 37.4153 1.12189 36.7354 1.96056 36.7354H48.0396C48.8782 36.7354 49.5584 37.4153 49.5584 38.2542V45.7282C49.5583 46.5671 48.8782 47.2471 48.0395 47.2471ZM3.47941 44.2095H46.5207V39.7731H3.47941V44.2095Z" fill="#EA4C89"/>
<path d="M48.0391 4.271H1.96063V11.7452H48.0391V4.271Z" fill="#FFDDED"/>
<path d="M48.0395 13.2646H1.96056C1.12189 13.2646 0.441711 12.5847 0.441711 11.7458V4.27178C0.441711 3.43291 1.12189 2.75293 1.96056 2.75293H48.0396C48.8782 2.75293 49.5584 3.43291 49.5584 4.27178V11.7458C49.5583 12.5847 48.8782 13.2646 48.0395 13.2646ZM3.47941 10.227H46.5207V5.79053H3.47941V10.227Z" fill="#EA4C89"/>
<path d="M6.50646 29.9877C9.26103 29.9877 11.4941 27.7547 11.4941 25.0001C11.4941 22.2455 9.26103 20.0125 6.50646 20.0125C3.75188 20.0125 1.51886 22.2455 1.51886 25.0001C1.51886 27.7547 3.75188 29.9877 6.50646 29.9877Z" fill="#FFDDED"/>
<path d="M6.50645 31.5066C2.91875 31.5066 0 28.5878 0 25.0002C0 21.4126 2.91875 18.4938 6.50645 18.4938C10.0941 18.4938 13.013 21.4125 13.013 25.0002C13.013 28.5878 10.094 31.5066 6.50645 31.5066ZM6.50645 21.5313C4.59375 21.5313 3.0377 23.0873 3.0377 25.0001C3.0377 26.9129 4.59375 28.4689 6.50645 28.4689C8.41924 28.4689 9.97529 26.9128 9.97529 25.0001C9.97529 23.0875 8.41924 21.5313 6.50645 21.5313Z" fill="#EA4C89"/>
<path d="M25.0001 31.5065C21.4124 31.5065 18.4937 28.5877 18.4937 25C18.4937 21.4123 21.4124 18.4936 25.0001 18.4936C28.5877 18.4936 31.5065 21.4123 31.5065 25C31.5065 25.8389 30.8264 26.5189 29.9877 26.5189C29.149 26.5189 28.4688 25.8389 28.4688 25C28.4688 23.0873 26.9128 21.5313 25.0001 21.5313C23.0874 21.5313 21.5313 23.0873 21.5313 25C21.5313 26.9127 23.0874 28.4688 25.0001 28.4688C25.8388 28.4688 26.5189 29.1487 26.5189 29.9876C26.5189 30.8265 25.8388 31.5065 25.0001 31.5065Z" fill="#EA4C89"/>
<path d="M43.4935 29.9877C46.248 29.9877 48.4811 27.7547 48.4811 25.0001C48.4811 22.2455 46.248 20.0125 43.4935 20.0125C40.7389 20.0125 38.5059 22.2455 38.5059 25.0001C38.5059 27.7547 40.7389 29.9877 43.4935 29.9877Z" fill="#FFDDED"/>
<path d="M43.4935 31.5065C39.9058 31.5065 36.987 28.5877 36.987 25C36.987 21.4123 39.9059 18.4936 43.4935 18.4936C47.0811 18.4936 50 21.4124 50 25.0001C50 28.5877 47.0812 31.5065 43.4935 31.5065ZM43.4935 21.5312C41.5807 21.5312 40.0247 23.0872 40.0247 24.9999C40.0247 26.9126 41.5807 28.4687 43.4935 28.4687C45.4062 28.4687 46.9623 26.9126 46.9623 24.9999C46.9623 23.0872 45.4062 21.5312 43.4935 21.5312Z" fill="#EA4C89"/>
</svg>
