<?xml version="1.0" standalone="no"?>
<!DOCTYPE svg PUBLIC "-//W3C//DTD SVG 20010904//EN"
 "http://www.w3.org/TR/2001/REC-SVG-20010904/DTD/svg10.dtd">
<svg version="1.0" xmlns="http://www.w3.org/2000/svg"
 width="1128.000000pt" height="1051.000000pt" viewBox="0 0 1128.000000 1051.000000"
 preserveAspectRatio="xMidYMid meet">
<metadata>
Created by potrace 1.16, written by Peter Selinger 2001-2019
</metadata>
<g transform="translate(0.000000,1051.000000) scale(0.100000,-0.100000)"
fill="#EA4C89" stroke="none">
<path fill="#FFE5B4" d="M5370 10490 c-220 -47 -398 -148 -559 -316 -137 -143 -216 -286 -274
-494 -17 -63 -21 -104 -21 -255 0 -163 3 -189 26 -277 51 -189 147 -355 283
-493 480 -486 1289 -412 1678 152 60 87 125 231 154 340 24 89 27 115 27 278
0 151 -4 192 -21 255 -58 208 -137 351 -274 494 -164 172 -355 278 -579 320
-114 22 -330 20 -440 -4z"/>
<path d="M5480 8183 c-1558 -58 -2872 -1261 -3164 -2893 -57 -322 -75 -699
-37 -819 26 -83 60 -137 123 -198 186 -175 461 -177 650 -4 62 56 119 156 136
236 6 28 13 128 17 224 21 609 175 1176 459 1691 64 116 196 323 202 317 3 -2
-11 -37 -29 -78 -223 -489 -390 -1153 -452 -1794 -8 -88 -17 -181 -19 -207
l-5 -48 2238 0 2238 0 -4 53 c-55 722 -217 1423 -452 1956 -28 63 -49 116 -47
118 2 2 35 -45 73 -104 364 -560 564 -1207 588 -1904 7 -205 16 -252 63 -342
139 -269 507 -329 734 -119 68 63 103 118 129 203 37 119 20 507 -37 819 -185
1019 -756 1879 -1601 2413 -143 90 -415 223 -587 287 -175 65 -440 133 -624
160 -123 18 -458 43 -502 38 -8 -1 -49 -3 -90 -5z"/>
<path  d="M3357 4453 c-11 -10 -8 -550 3 -728 81 -1261 448 -2324 1035 -2997
l54 -61 -78 -48 c-144 -89 -251 -224 -251 -316 l0 -33 699 0 700 0 5 53 c3 28
20 640 38 1359 18 720 35 1308 38 1308 3 0 20 -584 38 -1297 18 -714 35 -1326
38 -1360 l6 -63 699 0 699 0 0 33 c0 92 -107 227 -250 315 l-77 48 30 34 c333
389 571 826 757 1389 211 641 317 1366 308 2106 l-3 260 -2241 3 c-1232 1
-2244 -1 -2247 -5z"/>
</g>
</svg>
